# xmcd
#
# Track frame offsets: 
#        150
#        13663
#        27285
#        40184
#        56254
#        68745
#        85149
#        100632
#        113467
#        128357
#        140185
#        153693
#        168679
#        182406
#
# Disc length: 2628 seconds
#
# Revision: 1
# Processed by: cddbd v1.5.2PL0 Copyright (c) Steve Scherf et al.
# Submitted via: ExactAudioCopy v0.99pb5
#
DISCID=ab0a420e
DTITLE=Steirerbluat - Alles, was I Dir biet'n kann
DYEAR=2002
DGENRE=Schlager
TTITLE0=Gibt es nicht, gibt es doch
TTITLE1=Alles, was I Dir beit'n kann
TTITLE2=Spuerst Du's net
TTITLE3=Irgendwann
TTITLE4=Baby, Baby
TTITLE5=Da steh' I drauf
TTITLE6=Kleine Wolke
TTITLE7=Setz' Di her (und gib a Ruah)
TTITLE8=Komm' doch heut' Nacht
TTITLE9=Weil I Di mog
TTITLE10=Wenn Freundschaft geht
TTITLE11=Hero of love
TTITLE12=I will leb'n (Version 2003) (Neuaufnahme)
TTITLE13=Flieg' mit mir (Version 2003) (Neuaufnahme)
EXTD=
EXTT0=
EXTT1=
EXTT2=
EXTT3=
EXTT4=
EXTT5=
EXTT6=
EXTT7=
EXTT8=
EXTT9=
EXTT10=
EXTT11=
EXTT12=
EXTT13=
PLAYORDER=
